<svg width="512" height="512" viewBox="0 0 512 512" fill="none" xmlns="http://www.w3.org/2000/svg">
  <rect width="512" height="512" rx="64" fill="#0369a1"/>
  <path d="M256 128C185.31 128 128 185.31 128 256C128 326.69 185.31 384 256 384C326.69 384 384 326.69 384 256C384 185.31 326.69 128 256 128ZM256 160C307.55 160 352 204.45 352 256C352 307.55 307.55 352 256 352C204.45 352 160 307.55 160 256C160 204.45 204.45 160 256 160Z" fill="white"/>
  <path d="M256 192C223.6 192 197.33 218.27 197.33 250.67C197.33 283.07 223.6 309.33 256 309.33C288.4 309.33 314.67 283.07 314.67 250.67C314.67 218.27 288.4 192 256 192ZM256 224C270.72 224 282.67 235.95 282.67 250.67C282.67 265.39 270.72 277.33 256 277.33C241.28 277.33 229.33 265.39 229.33 250.67C229.33 235.95 241.28 224 256 224Z" fill="white"/>
  <path d="M357.33 240H389.33C389.33 229.69 387.57 219.79 384.27 210.75L357.33 224.09C358.27 229.33 358.27 234.67 357.33 240Z" fill="white"/>
  <path d="M348.93 204.25L373.33 180.16C364.27 171.9 353.69 165.36 341.33 161.09L330.59 186.75C337.31 191.17 342.83 197.09 348.93 204.25Z" fill="white"/>
  <path d="M298.59 150.91L312 125.41C302.96 123.57 293.59 122.67 284.03 122.67C278.69 122.67 273.36 123.57 268.03 123.57L281.36 150.24C286.93 150.24 292.88 150.24 298.59 150.91Z" fill="white"/>
  <path d="M229.71 152.56L217.73 127.5C207.57 130.89 198.05 135.84 189.55 142.1L213.55 159.65C218.75 156.56 224.09 154.29 229.71 152.56Z" fill="white"/>
  <path d="M181.17 179.65L158.13 161.17C150.91 169.17 145.01 178.43 140.67 188.45L168.24 196.05C171.84 189.99 176.1 184.56 181.17 179.65Z" fill="white"/>
  <path d="M159.2 222.19L131.81 213.97C129.39 223.2 128 232.83 128 242.69H156.16C156.16 235.6 157.28 228.77 159.2 222.19Z" fill="white"/>
</svg> 